<?xml version="1.0" encoding="UTF-8" standalone="no"?>
<svg xmlns="http://www.w3.org/2000/svg" version="1.1" viewBox="-2.81 -2.62 270.8 305.49">
  <path fill="#0c4da2" d="   M 128.61 205.63   Q 105.13 197.19 83.02 180.75   C 59.07 162.94 43.29 138.75 39.18 109.51   Q 38.06 101.54 38.11 89.93   Q 38.28 50.75 38.17 13.77   A 2.17 2.17 0.0 0 1 39.82 11.65   Q 80.49 1.55 122.82 0.70   Q 126.24 0.63 129.68 0.47   C 133.98 0.26 138.14 0.63 142.40 0.72   Q 184.58 1.60 225.17 11.67   A 2.17 2.16 7.0 0 1 226.81 13.77   Q 226.85 56.62 226.78 97.52   Q 226.75 112.07 221.33 128.21   Q 211.61 157.11 186.56 177.16   Q 162.24 196.62 134.04 206.48   C 131.91 207.22 130.56 206.33 128.61 205.63   Z   M 82.59 7.04   Q 60.47 9.90 41.89 14.62   Q 41.32 14.76 41.32 15.35   Q 41.36 19.88 41.33 89.84   Q 41.32 102.08 42.38 108.75   Q 48.06 144.64 73.26 168.16   Q 97.20 190.49 131.81 203.29   Q 132.53 203.55 133.25 203.29   Q 166.50 191.03 190.07 169.72   Q 217.03 145.33 222.52 109.15   Q 223.68 101.52 223.67 90.24   Q 223.63 53.15 223.62 14.99   A 0.40 0.40 0.0 0 0 223.31 14.60   Q 153.72 -2.16 82.59 7.04   Z"></path>
  <path fill="#0c4da2" d="   M 47.39 18.30   Q 131.65 -0.92 217.40 18.21   Q 218.69 18.49 218.68 19.82   Q 218.52 52.67 218.67 90.90   Q 218.71 101.82 217.56 109.22   Q 213.03 138.15 193.42 159.55   Q 183.52 170.36 167.38 180.90   Q 150.85 191.70 133.02 198.09   A 1.70 1.66 -44.3 0 1 131.87 198.09   Q 106.38 188.72 84.82 171.72   C 64.44 155.65 51.26 134.56 47.38 108.75   Q 46.25 101.24 46.31 89.47   Q 46.49 55.26 46.33 19.64   Q 46.32 18.55 47.39 18.30   Z   M 135.61 194.89   Q 158.66 185.77 176.79 171.69   Q 185.94 164.58 191.63 158.40   Q 211.07 137.29 215.53 108.74   Q 216.70 101.27 216.66 89.51   Q 216.52 52.35 216.63 20.73   Q 216.63 20.17 216.09 20.05   Q 132.41 1.45 48.94 20.02   A 0.72 0.72 0.0 0 0 48.38 20.72   Q 48.55 55.92 48.32 88.38   Q 48.23 100.65 49.43 108.44   Q 55.24 146.18 86.83 170.65   Q 107.50 186.67 131.17 195.61   C 132.84 196.24 134.10 195.49 135.61 194.89   Z"></path>
  <path fill="#0c4da2" d="   M 163.10 33.99   Q 166.36 24.16 176.74 23.86   A 1.56 1.55 -80.0 0 1 178.23 25.99   L 175.66 32.46   A 0.45 0.43 35.5 0 0 175.74 32.90   Q 183.44 41.39 190.80 49.73   C 193.68 52.99 189.80 55.78 191.83 59.09   Q 201.58 75.05 210.52 89.56   C 212.47 92.72 211.91 97.38 208.43 99.19   Q 202.18 102.43 198.16 107.12   Q 197.33 108.09 196.00 108.42   Q 195.12 108.65 194.57 107.99   Q 193.95 107.27 193.82 106.34   Q 193.37 103.15 190.40 101.29   Q 188.95 100.38 187.26 100.53   Q 186.41 100.61 186.12 101.66   A 1.18 1.17 28.9 0 0 186.46 102.82   Q 188.35 104.54 190.65 106.34   C 191.31 106.86 191.69 107.65 191.65 108.50   A 1.31 1.31 0.0 0 1 189.98 109.70   Q 184.63 108.15 180.21 108.36   Q 179.68 108.38 179.27 108.04   Q 177.96 106.96 178.46 105.27   A 2.67 2.67 0.0 0 0 177.57 102.43   L 166.93 93.90   Q 166.52 93.57 165.99 93.55   Q 156.19 93.17 149.56 85.81   Q 149.17 85.38 148.74 85.76   Q 140.92 92.58 140.09 102.52   C 139.53 109.09 144.61 114.06 146.96 119.81   Q 150.95 129.57 149.48 140.77   Q 148.58 147.66 143.02 158.28   Q 137.72 168.40 132.02 178.11   A 0.37 0.37 0.0 0 1 131.35 178.05   C 121.00 149.73 102.69 128.37 77.09 112.55   Q 76.67 112.28 76.73 111.79   Q 81.64 75.64 109.60 53.30   C 124.56 41.35 143.06 35.21 162.14 34.70   Q 162.87 34.68 163.10 33.99   Z"></path>
  <path fill="#0c4da2" d="   M 165.15 27.27   L 160.95 32.77   Q 160.78 32.98 160.52 32.99   Q 129.60 34.59 107.06 53.31   Q 80.14 75.66 75.14 110.91   Q 75.05 111.53 74.51 111.23   Q 65.05 106.14 55.72 102.19   Q 54.96 101.86 55.18 101.06   Q 66.22 62.01 100.11 41.07   Q 128.93 23.27 165.03 27.00   A 0.17 0.17 0.0 0 1 165.15 27.27   Z"></path>
  <path fill="#0c4da2" d="   M 152.36 91.30   C 151.04 93.94 151.34 96.07 153.08 98.37   Q 159.60 107.00 163.26 118.11   Q 168.48 134.00 160.38 148.31   Q 149.84 166.92 133.40 180.03   Q 132.07 181.09 132.98 179.65   Q 140.21 168.19 146.70 154.49   Q 150.83 145.79 151.47 138.99   C 152.37 129.40 149.63 119.67 144.09 111.43   C 138.87 103.66 142.84 93.51 149.08 87.89   A 0.55 0.55 0.0 0 1 149.83 87.90   L 152.13 90.03   Q 152.72 90.58 152.36 91.30   Z"></path>
  <path fill="#0c4da2" d="   M 140.86 246.38   C 136.11 240.04 138.96 232.14 145.87 229.17   C 150.64 227.12 156.69 229.32 159.37 233.86   Q 162.07 238.42 160.23 243.62   Q 160.05 244.15 160.51 244.45   Q 169.42 250.27 173.10 259.93   A 0.26 0.26 0.0 0 0 173.55 260.00   Q 179.14 253.16 186.87 249.43   A 0.28 0.27 46.5 0 0 186.88 248.94   C 178.68 244.44 180.01 232.22 188.61 228.95   C 197.28 225.65 205.31 233.20 203.51 242.01   A 0.44 0.44 0.0 0 0 203.94 242.53   L 217.68 242.53   Q 218.33 242.53 218.33 243.18   L 218.28 254.97   Q 218.27 256.09 219.06 255.29   Q 227.01 247.18 237.82 243.95   Q 242.70 242.50 251.07 242.39   Q 257.79 242.30 264.47 242.37   A 0.36 0.35 90.0 0 1 264.82 242.73   L 264.82 287.81   A 0.37 0.37 0.0 0 1 264.45 288.18   L 253.60 288.14   Q 253.01 288.14 252.97 288.74   C 252.01 303.74 230.56 303.30 230.24 288.39   Q 230.23 287.88 229.72 287.88   L 200.20 287.90   Q 199.60 287.90 199.60 287.31   L 199.61 265.98   A 0.45 0.44 -8.7 0 0 199.03 265.56   Q 186.93 269.32 184.58 281.19   C 184.16 283.32 184.59 285.50 184.48 287.67   Q 184.46 288.17 183.96 288.17   L 168.34 288.13   Q 167.81 288.13 167.82 288.66   L 167.84 291.00   A 0.34 0.34 0.0 0 1 167.50 291.34   L 129.49 291.34   Q 128.91 291.34 128.51 291.76   L 125.95 294.47   Q 125.56 294.89 124.98 294.89   L 99.28 294.93   Q 98.42 294.93 99.03 294.32   L 109.37 284.17   A 0.57 0.57 0.0 0 0 109.36 283.34   Q 106.26 280.43 104.40 277.05   Q 104.16 276.62 103.82 276.97   L 84.89 296.18   Q 84.48 296.59 83.89 296.59   L 58.50 296.60   Q 56.68 296.60 58.19 295.58   Q 58.67 295.26 59.07 294.86   Q 72.98 281.04 86.69 266.81   Q 88.24 265.21 87.58 263.09   Q 87.50 262.83 87.37 262.59   Q 86.36 260.62 84.81 262.20   L 55.66 291.87   A 1.21 1.18 21.7 0 1 54.80 292.23   L 51.33 292.19   Q 50.80 292.19 50.43 292.57   L 48.57 294.48   Q 48.16 294.90 47.58 294.90   L 1.41 294.90   Q -0.06 294.90 0.99 293.87   L 10.09 284.88   A 0.41 0.41 0.0 0 0 10.06 284.27   C -2.85 273.77 -3.10 256.02 10.07 245.59   Q 10.62 245.15 10.13 244.64   L 8.87 243.31   A 0.80 0.80 0.0 0 1 9.04 242.06   C 27.51 231.18 49.68 243.20 50.27 264.70   Q 50.29 265.49 50.85 264.93   L 61.71 253.93   Q 62.04 253.59 62.52 253.59   L 75.47 253.57   A 0.28 0.28 0.0 0 0 75.75 253.29   L 75.67 242.21   Q 75.67 241.62 76.26 241.60   C 86.72 241.09 95.14 240.65 102.56 248.91   Q 102.96 249.35 103.29 248.85   Q 110.19 238.23 123.85 238.13   A 0.66 0.66 0.0 0 1 124.51 238.79   L 124.49 240.75   Q 124.48 241.32 125.04 241.34   Q 133.46 241.65 140.59 246.67   Q 141.62 247.40 140.86 246.38   Z   M 200.24 239.34   A 7.69 7.69 0.0 0 0 192.55 231.65   A 7.69 7.69 0.0 0 0 184.86 239.34   A 7.69 7.69 0.0 0 0 192.55 247.03   A 7.69 7.69 0.0 0 0 200.24 239.34   Z   M 157.42 239.58   A 7.69 7.69 0.0 0 0 149.73 231.89   A 7.69 7.69 0.0 0 0 142.04 239.58   A 7.69 7.69 0.0 0 0 149.73 247.27   A 7.69 7.69 0.0 0 0 157.42 239.58   Z   M 16.23 282.93   A 0.47 0.47 0.0 0 1 16.40 283.70   L 9.76 290.24   Q 9.15 290.84 10.01 290.83   L 24.74 290.78   A 1.86 1.83 -67.9 0 0 26.08 290.20   Q 31.17 284.86 36.37 279.75   C 44.27 272.00 45.87 260.95 38.64 252.19   C 24.62 235.20 -2.27 250.77 4.98 271.41   C 6.80 276.60 11.09 281.08 16.23 282.93   Z   M 79.49 257.00   A 0.54 0.54 0.0 0 0 80.06 257.54   C 83.11 257.36 86.93 257.09 89.51 259.05   C 92.17 261.07 92.69 265.82 90.19 268.42   Q 78.84 280.22 67.94 290.91   Q 67.51 291.32 67.02 291.72   Q 66.01 292.53 67.30 292.53   L 82.94 292.53   Q 83.53 292.53 83.94 292.10   Q 91.26 284.36 99.64 276.14   C 105.45 270.43 105.79 262.26 102.05 255.15   C 98.96 249.28 93.00 245.24 86.27 245.39   Q 82.97 245.46 79.86 245.41   Q 79.49 245.40 79.49 245.77   L 79.49 257.00   Z   M 168.73 278.35   Q 168.75 274.55 168.24 270.79   C 166.80 260.08 159.85 250.57 148.93 248.14   A 0.86 0.86 0.0 0 0 147.93 248.70   L 144.33 259.44   A 0.71 0.71 0.0 0 0 145.00 260.37   C 151.39 260.40 156.07 265.75 156.04 272.09   A 0.51 0.51 0.0 0 1 155.53 272.60   L 143.11 272.62   A 0.38 0.38 0.0 0 1 142.75 272.11   Q 146.44 261.72 139.98 253.14   C 134.16 245.40 123.36 243.06 114.92 248.09   C 102.05 255.75 101.50 274.82 115.33 282.09   A 0.56 0.55 -53.6 0 1 115.46 282.97   L 108.27 290.25   A 0.34 0.34 0.0 0 0 108.52 290.83   L 123.52 290.79   A 2.28 2.27 -67.6 0 0 125.14 290.11   L 130.50 284.70   Q 130.83 284.36 131.31 284.36   L 180.44 284.36   Q 180.95 284.36 180.94 283.84   C 180.64 272.99 188.56 264.22 198.97 262.09   Q 199.62 261.95 199.62 261.28   L 199.60 250.52   Q 199.60 249.95 199.03 250.01   Q 188.60 251.19 180.38 258.66   Q 171.44 266.79 168.98 278.38   Q 168.73 279.55 168.73 278.35   Z   M 214.81 279.55   L 214.88 246.62   A 0.49 0.49 0.0 0 0 214.39 246.13   L 203.31 246.14   A 0.29 0.29 0.0 0 0 203.02 246.43   L 203.03 284.03   Q 203.03 284.52 203.53 284.52   L 226.48 284.51   Q 227.07 284.51 227.10 283.92   Q 227.82 269.95 240.30 263.82   Q 242.45 262.76 245.04 262.39   Q 245.79 262.28 245.79 261.52   L 245.80 250.51   Q 245.80 249.73 245.03 249.92   Q 221.05 255.79 215.07 279.58   Q 214.81 280.62 214.81 279.55   Z   M 261.45 246.45   A 0.36 0.36 0.0 0 0 261.09 246.09   L 249.89 246.09   A 0.36 0.36 0.0 0 0 249.53 246.45   L 249.53 284.27   A 0.36 0.36 0.0 0 0 249.89 284.63   L 261.09 284.63   A 0.36 0.36 0.0 0 0 261.45 284.27   L 261.45 246.45   Z   M 78.93 257.97   A 0.30 0.30 0.0 0 0 78.71 257.46   L 63.34 257.52   A 0.30 0.30 0.0 0 0 63.12 257.61   L 30.93 290.35   A 0.30 0.30 0.0 0 0 31.15 290.86   L 46.54 290.80   A 0.30 0.30 0.0 0 0 46.76 290.71   L 78.93 257.97   Z   M 248.79 273.19   A 7.61 7.61 0.0 0 0 241.18 265.58   A 7.61 7.61 0.0 0 0 233.57 273.19   A 7.61 7.61 0.0 0 0 241.18 280.80   A 7.61 7.61 0.0 0 0 248.79 273.19   Z   M 249.19 288.78   A 7.63 7.63 0.0 0 0 241.56 281.15   A 7.63 7.63 0.0 0 0 233.93 288.78   A 7.63 7.63 0.0 0 0 241.56 296.41   A 7.63 7.63 0.0 0 0 249.19 288.78   Z"></path>
  <circle fill="#0c4da2" cx="23.30" cy="265.21" r="8.09"></circle>
  <circle fill="#0c4da2" cx="124.53" cy="265.22" r="8.08"></circle>
</svg>
