<svg xmlns="http://www.w3.org/2000/svg" viewBox="5.78 13.56 1984 504.44">
  <title>Persian logo reconstructed as editable vector paths</title>
  <g id="top-line" fill="#4a637a" fill-rule="evenodd">
    <path transform="translate(1034.00 80.00)" d="M0 0 C-0.08 2.77 -0.08 2.77 -1 6 C-3.29 7.58 -5.17 8.6 -7.69 9.69 C-9.13 10.36 -10.57 11.03 -12.01 11.7 C-12.41 11.88 -12.41 11.88 -14.4 12.79 C-19.32 15.08 -24.15 17.56 -29 20 C-30.92 20.96 -32.83 21.92 -34.75 22.88 C-35.57 23.28 -36.39 23.69 -37.23 24.12 C-37.53 24.26 -37.53 24.26 -39 25 C-39.85 22.62 -40.11 21.36 -39.35 18.91 C-37.65 16.5 -36.1 15.7 -33.45 14.41 C-32.53 13.96 -31.61 13.51 -30.66 13.04 C-29.68 12.57 -28.7 12.11 -27.69 11.62 C-26.69 11.14 -25.7 10.66 -24.68 10.16 C-21.79 8.76 -18.9 7.38 -16 6 C-14.59 5.32 -13.17 4.63 -11.76 3.95 C-3.44 0 -3.44 0 0 0 Z "/>
    <path transform="translate(554.00 91.00)" d="M0 0 C1.92 15.75 2.41 31.39 2.62 47.25 C2.66 49.66 2.7 52.08 2.74 54.49 C2.84 60.33 2.92 66.16 3 72 C4.25 72.32 5.49 72.65 6.78 72.98 C7.13 73.08 7.13 73.08 8.9 73.54 C14.57 74.79 19.61 74.01 25 72 C27.41 68.39 27.24 66.92 27.19 62.62 C27.18 62.29 27.18 62.29 27.17 60.58 C27.06 53.24 26.8 45.9 26.56 38.56 C26.52 37.3 26.49 36.04 26.45 34.75 C26.26 29.34 26.06 23.97 25.43 18.6 C24.24 8.13 24.24 8.13 26.72 4.43 C28.73 2.62 30.61 1.25 33 0 C38 5 36.26 16.08 36.39 22.67 C36.45 24.67 36.5 26.68 36.55 28.68 C36.68 33.6 36.8 38.53 36.9 43.45 C36.95 46.22 37.02 48.99 37.1 51.76 C37.17 54.37 37.23 56.97 37.27 59.58 C37.3 60.76 37.34 61.94 37.38 63.15 C37.4 64.19 37.43 65.22 37.45 66.29 C38.14 69.7 39.26 70.89 42 73 C47.96 74.47 51.59 74.27 57 71 C60.36 67.07 62.56 62.95 64.94 58.38 C67.93 52.76 70.78 49.07 77 47 C81.46 46.63 84.03 46.57 88.12 48.38 C92.14 52.04 94.43 56.25 97 61 C97.89 62.65 98.79 64.29 99.69 65.94 C100.06 66.65 100.44 67.36 100.82 68.09 C102.61 70.99 103.88 72.69 107.23 73.62 C113.14 74.22 116.78 73.89 122 71 C123.71 69.29 123.13 67.12 123.14 64.83 C123.13 64.11 123.13 63.38 123.12 62.62 C123.12 61.87 123.12 61.11 123.12 60.33 C123.05 51.54 122.53 42.77 122 34 C121.86 31.57 121.71 29.14 121.57 26.7 C121.49 25.21 121.4 23.72 121.3 22.22 C121.09 18.53 120.94 14.83 120.86 11.13 C120.86 10.76 120.86 10.76 120.81 8.91 C121 7 121 7 122.75 4.59 C123.12 4.32 123.12 4.32 125 2.94 C125.37 2.65 125.37 2.65 127.25 1.21 C127.83 0.81 128.4 0.41 129 0 C129.33 0.17 129.33 0.17 131 1 C133.49 15.7 133.25 30.95 133.35 45.82 C133.37 47.89 133.39 49.96 133.42 52.03 C133.45 54.99 133.46 57.94 133.46 60.9 C133.48 61.79 133.49 62.67 133.5 63.58 C133.45 71.11 131.46 77.09 126.56 82.88 C121.25 87.28 116.95 89.19 110 89 C104.44 87.91 100.18 85.91 96 82 C95.89 82.37 95.89 82.37 95.31 84.25 C93.66 87.71 92.34 89.11 89 91 C80.05 91.49 69.83 85.51 63 80 C62.44 80.76 61.89 81.53 61.31 82.31 C58.19 85.94 55.68 87.77 50.88 88.43 C39.69 88.45 39.69 88.45 35 84 C33.12 81.75 33.12 81.75 32 80 C31.34 80.99 30.68 81.98 30 83 C29.34 83 28.68 83 28 83 C28 83.66 28 84.32 28 85 C23.29 87.78 19.38 88.47 14 88.38 C13.66 88.38 13.66 88.38 11.92 88.41 C5.98 88.38 1.97 86.82 -2.38 82.81 C-2.91 82.21 -3.45 81.62 -4 81 C-4.74 81.78 -5.49 82.57 -6.25 83.38 C-10.46 87.39 -13.06 88.25 -18.86 88.2 C-19.97 88.19 -21.09 88.18 -22.24 88.18 C-23.4 88.16 -24.56 88.14 -25.75 88.12 C-26.92 88.12 -28.1 88.11 -29.31 88.1 C-32.21 88.07 -35.1 88.04 -38 88 C-37.31 88.31 -36.63 88.63 -35.92 88.95 C-35.02 89.38 -34.12 89.81 -33.19 90.25 C-32.29 90.67 -31.4 91.09 -30.48 91.52 C-27.83 93.1 -26.55 94.35 -25 97 C-24.26 103.32 -25.35 107.76 -29 113 C-37.17 122.67 -50.56 125.19 -62.55 126.22 C-71.97 126.58 -81.4 124.46 -89.09 118.88 C-94.78 113.29 -96.68 105.9 -97.31 98.19 C-97.21 88.41 -93.73 77.95 -90 69 C-84.25 69.88 -84.25 69.88 -82 71 C-82.19 71.55 -82.39 72.1 -82.59 72.66 C-85.78 82.39 -88.91 93.39 -85.02 103.27 C-82.76 107.1 -80.18 108.64 -76 110 C-65.98 111.96 -56.18 111.64 -46.31 109.25 C-45.64 109.09 -44.97 108.94 -44.28 108.77 C-40.15 107.68 -37.73 106.29 -35 103 C-37.73 99.5 -41.6 98.42 -45.62 96.94 C-52.87 94.27 -52.87 94.27 -54 92 C-53.35 89.62 -52.64 87.37 -51.81 85.06 C-51.39 83.82 -50.96 82.57 -50.52 81.29 C-48.91 77.8 -48.27 76.84 -45 75 C-42.44 74.66 -40.09 74.47 -37.53 74.41 C-36.06 74.35 -34.59 74.28 -33.11 74.22 C-30.8 74.14 -28.49 74.06 -26.18 73.99 C-23.94 73.92 -21.71 73.82 -19.47 73.72 C-18.78 73.71 -18.09 73.7 -17.38 73.68 C-14.04 73.53 -12.24 73.19 -9.56 71.13 C-7.39 68.16 -7.57 66.29 -7.69 62.62 C-7.7 61.96 -7.72 61.29 -7.74 60.6 C-7.78 59.02 -7.83 57.44 -7.89 55.86 C-8.02 52.52 -8.11 49.18 -8.2 45.84 C-8.28 43.22 -8.36 40.61 -8.44 38 C-8.48 36.69 -8.51 35.38 -8.55 34.03 C-8.73 28.58 -8.91 23.17 -9.57 17.75 C-10.73 8.11 -10.73 8.11 -8.35 4.5 C-3.48 0 -3.48 0 0 0 Z M72 63 C70.5 65.25 69.92 66.27 70.23 68.96 C71.91 73.4 77.58 75.29 81.62 77.31 C84.52 78.15 87.01 78.2 90 78 C91 77 91 77 91.38 74.06 C91.32 68.86 88.78 64.29 86 60 C79.97 55.98 76.37 57.66 72 63 Z "/>
    <path transform="translate(708.00 91.00)" d="M0 0 C4.72 8.5 3.3 20.06 3.56 29.56 C3.58 30.28 3.6 30.99 3.62 31.72 C3.76 36.48 3.88 41.24 4 46 C4.02 46.9 4.05 47.81 4.08 48.74 C4.41 61.89 3.19 74.92 2 88 C-0.64 88.33 -3.28 88.66 -6 89 C-6.03 87.77 -6.05 86.54 -6.08 85.28 C-6.17 80.62 -6.27 75.96 -6.37 71.3 C-6.42 69.3 -6.46 67.31 -6.5 65.31 C-6.71 54.9 -6.97 44.5 -7.47 34.11 C-7.51 33.32 -7.55 32.53 -7.59 31.72 C-7.9 25.58 -8.45 19.47 -9.41 13.4 C-9.66 11 -9.68 9.33 -9 7 C-6.31 4.16 -3.32 2.05 0 0 Z "/>
    <path transform="translate(1210.00 92.00)" d="M0 0 C3.41 2.25 6.76 4.51 10 7 C8.57 12.01 6.02 13.94 2 17 C-0.64 15.02 -3.28 13.04 -6 11 C-5.11 7.43 -4.53 6.04 -2.44 3.25 C-1.98 2.64 -1.53 2.02 -1.06 1.39 C-0.71 0.93 -0.36 0.47 0 0 Z "/>
    <path transform="translate(971.00 91.00)" d="M0 0 C0.66 0.33 1.32 0.66 2 1 C2.49 3.69 2.83 6.29 3.09 9 C3.17 9.84 3.26 10.68 3.34 11.55 C4.36 22.66 4.43 33.79 4.56 44.94 C4.61 48.19 4.65 51.45 4.71 54.7 C4.74 56.71 4.76 58.71 4.79 60.72 C4.8 61.62 4.81 62.51 4.83 63.44 C4.84 64.23 4.85 65.01 4.86 65.82 C5 68.04 5.24 69.91 6 72 C16.33 76.79 33.34 74.55 44 71 C45 64.57 42.58 60.9 38.98 55.64 C35.49 50.99 32.01 47.27 27.08 44.15 C19.27 39.18 19.27 39.18 18.41 35.48 C18.82 30.48 20.34 26.26 23 22 C25.21 20.51 27.1 19.45 29.5 18.38 C30.17 18.06 30.84 17.74 31.53 17.41 C34.01 16.25 36.5 15.12 39 14 C40.11 13.5 41.22 12.99 42.36 12.47 C46.03 10.8 49.7 9.15 53.38 7.5 C53.68 7.36 53.68 7.36 55.22 6.67 C56.97 5.89 58.71 5.12 60.46 4.34 C61.48 3.89 62.5 3.44 63.55 2.97 C66 2 66 2 68 2 C68.03 6.32 67.63 9.98 66 14 C62.71 16.57 59.1 17.8 55.18 19.18 C50.81 20.83 46.61 22.9 42.38 24.88 C40.66 25.67 38.94 26.46 37.21 27.24 C36.47 27.58 35.73 27.92 34.97 28.27 C33 29 33 29 30 29 C30.68 29.68 31.36 30.36 32.06 31.06 C32.52 31.53 32.98 31.99 33.46 32.47 C34.48 33.48 35.52 34.48 36.57 35.47 C45.63 44.09 53.84 53.65 54.44 66.5 C54.22 72.79 52.74 77.28 48.23 81.75 C40.02 88.46 31.13 88.34 20.94 88.31 C20.36 88.32 20.36 88.32 17.47 88.36 C10.53 88.37 4.63 88.36 -0.71 83.42 C-1.07 82.87 -1.44 82.32 -1.81 81.75 C-2.19 81.21 -2.57 80.67 -2.96 80.11 C-5.91 74.13 -6.3 68.42 -6.34 61.87 C-6.37 60.08 -6.4 58.3 -6.43 56.51 C-6.44 55.59 -6.45 54.67 -6.46 53.72 C-6.66 38.39 -7.04 23.22 -9 8 C-7.68 7.34 -6.36 6.68 -5 6 C-5 5.34 -5 4.68 -5 4 C-3.37 2.62 -1.71 1.28 0 0 Z "/>
    <path transform="translate(1220.19 119.12)" d="M0 0 C7.19 4.8 10.68 11.84 12.54 20.11 C14.13 29.64 15.66 41.52 9.81 49.88 C4.61 56.3 -2.21 58.74 -10.19 59.88 C-14.56 60.09 -18.93 60.06 -23.31 60.06 C-24.49 60.07 -25.67 60.09 -26.89 60.1 C-27.45 60.1 -27.45 60.1 -30.32 60.11 C-30.84 60.11 -30.84 60.11 -33.44 60.12 C-36.2 59.87 -37.84 59.29 -40.19 57.88 C-40.4 58.71 -40.6 59.54 -40.82 60.4 C-44.42 73.55 -50.64 80.72 -62.19 87.88 C-62.81 88.27 -63.42 88.66 -64.06 89.06 C-65.69 89.81 -65.69 89.81 -69.19 89.88 C-73.19 87.97 -76.79 85.73 -80.19 82.88 C-80.52 81.88 -80.85 80.89 -81.19 79.88 C-80.28 79.58 -79.38 79.29 -78.44 78.99 C-67.46 75.3 -58.67 70.87 -51.38 61.56 C-48.34 54.69 -50.78 48.04 -53.19 41.38 C-53.47 40.55 -53.76 39.73 -54.05 38.88 C-54.75 36.88 -55.47 34.88 -56.19 32.88 C-54.9 31.7 -53.61 30.54 -52.31 29.38 C-51.59 28.73 -50.87 28.08 -50.13 27.41 C-48.19 25.88 -48.19 25.88 -46.19 25.88 C-45.35 28.33 -44.52 30.79 -43.69 33.25 C-43.45 33.95 -43.21 34.65 -42.96 35.37 C-41.19 40.65 -41.19 40.65 -41.19 42.88 C-28.58 48.08 -11.01 47.55 1.67 42.8 C2.38 42.5 3.08 42.19 3.81 41.88 C3.81 39.56 3.81 37.25 3.81 34.88 C3.07 35.35 2.33 35.82 1.56 36.31 C-3.48 39.18 -8.6 39.83 -14.31 38.31 C-17.98 37.02 -20.64 35.91 -23.19 32.88 C-25.8 25.04 -24.8 16.45 -21.39 9.04 C-16.44 0.17 -10 -3.53 0 0 Z M-15.19 13.88 C-16.37 17.43 -16.45 20.15 -16.19 23.88 C-15.19 25.75 -15.19 25.75 -13.19 26.88 C-7.02 28.26 -2.23 27.57 3.81 25.88 C3.04 19.97 1.69 15.51 -2.47 11.13 C-4.19 9.88 -4.19 9.88 -7.81 9.19 C-11.64 9.97 -12.88 10.78 -15.19 13.88 Z "/>
    <path transform="translate(1061.00 123.00)" d="M0 0 C9.95 2.8 16.66 12.81 22 21 C26.11 28.37 27.62 36.03 25.38 44.3 C23.05 49.81 19.36 52.57 14 55 C5.75 58.22 -3.9 58.19 -12.12 54.95 C-15.26 53.36 -16.43 52.2 -18 49 C-18.66 45 -19.03 41.05 -19 37 C-18 36 -18 36 -14.5 35.88 C-11 36 -11 36 -10 37 C-9.96 38.67 -9.96 40.33 -10 42 C-6.98 42.05 -3.96 42.09 -0.94 42.12 C-0.09 42.14 0.76 42.16 1.63 42.18 C6.83 42.22 11.07 41.7 16 40 C15.69 31.58 12.41 26.39 6.48 20.5 C3.11 17.42 -0.2 14.53 -4 12 C-3.34 7.61 -1.81 4.02 0 0 Z "/>
    <path transform="translate(925.00 125.00)" d="M0 0 C12.64 7.47 22.25 14.74 27 29 C27.66 36.34 27.7 43 23 49 C17.35 53.67 11.61 55.45 4.37 55.25 C-1.1 54.68 -6.13 53.42 -9.94 49.25 C-14.2 42.53 -14.6 36.62 -13 29 C-10.91 22.47 -7.31 17.27 -3 12 C-3.66 11.67 -4.32 11.34 -5 11 C-3.77 6.93 -2.24 3.6 0 0 Z M4 17 C2.98 18.22 2.01 19.48 1.06 20.75 C0.54 21.45 0.01 22.14 -0.53 22.86 C-3.02 26.49 -4.29 29.11 -4.31 33.56 C-4.33 34.33 -4.35 35.09 -4.36 35.88 C-3.91 38.55 -3.16 39.39 -1 41 C4.91 42.32 10.32 42.3 16 40 C18.25 37.88 18.25 37.88 19 35 C18.04 29.35 15.31 25.71 11 22 C10.47 21.53 9.93 21.07 9.38 20.59 C5.2 17 5.2 17 4 17 Z "/>
    <path transform="translate(754.00 135.00)" d="M0 0 C4.71 2.49 6.7 3.6 10 8 C8.02 10.64 6.04 13.28 4 16 C-0.59 14.51 -3.44 12.15 -7 9 C-6.02 7.69 -5.04 6.37 -4.06 5.06 C-3.52 4.33 -2.97 3.6 -2.41 2.85 C-1 1 -1 1 0 0 Z "/>
    <path transform="translate(1123.00 137.00)" d="M0 0 C6.88 3.81 10.39 9.88 12.68 17.17 C15.73 29.65 15.37 43.04 8.68 54.2 C2.83 62.57 -4.99 69.04 -14.88 71.8 C-18.9 72.06 -20.55 70.96 -23.88 68.75 C-24.84 68.13 -25.81 67.5 -26.8 66.86 C-27.53 66.25 -28.25 65.63 -29 65 C-29 64.01 -29 63.02 -29 62 C-27.81 61.64 -26.61 61.27 -25.38 60.9 C-13.87 57.3 -2.84 53.7 4 43 C4.66 40.79 4.66 40.79 5 39 C4.75 39.24 4.75 39.24 3.46 40.48 C0.09 42.56 -2.43 42.4 -6.38 42.38 C-7.66 42.38 -8.95 42.39 -10.27 42.4 C-15.45 41.84 -18.73 40.33 -22.31 36.56 C-25.35 31.95 -25.52 27.45 -25 22 C-23.4 14.48 -20.93 7.19 -14.94 2.06 C-10.25 -0.94 -5.36 -1.2 0 0 Z M-12.25 12.62 C-15.02 16.39 -15.97 19.52 -16.06 24.19 C-15 27 -15 27 -12.12 28.88 C-7.26 30.59 -2.09 30.44 3 30 C3.66 29.67 4.32 29.34 5 29 C3.02 17.02 3.02 17.02 -1.81 12.19 C-5.65 10.1 -8.69 10.05 -12.25 12.62 Z "/>
    <path transform="translate(863.00 133.00)" d="M0 0 C2 1 2 1 3.07 3.67 C6.25 14.27 8.77 25.78 3.33 36.1 C-0.4 41.43 -4.69 44.4 -11 46 C-14.32 46.32 -17.61 46.37 -20.94 46.38 C-21.81 46.4 -22.67 46.42 -23.57 46.45 C-29.56 46.48 -33.12 45.54 -38 42 C-39.44 39.25 -39.44 39.25 -40 37 C-40.66 37 -41.32 37 -42 37 C-42.23 37.58 -42.45 38.16 -42.69 38.75 C-44.57 41.98 -47.11 44.31 -50.66 45.61 C-54.1 46.19 -57.52 46.14 -61 46.12 C-61.36 46.13 -61.36 46.13 -63.16 46.14 C-66.58 46.13 -69.73 46.07 -73 45 C-73.01 45.61 -73.03 46.21 -73.04 46.84 C-73.48 54.48 -75.3 61.32 -80.86 66.86 C-91.75 75.42 -103.7 75.8 -117 75 C-124.35 74 -130.4 70.93 -135 65 C-138.52 58.85 -139.68 53.41 -139.56 46.38 C-139.56 45.51 -139.55 44.65 -139.54 43.76 C-139.29 34.89 -136.97 26.95 -133 19 C-130.69 19.66 -128.38 20.32 -126 21 C-126.49 24.27 -127.1 27.33 -128.06 30.5 C-130.21 38.92 -130.19 47.36 -126 55 C-126 55.66 -126 56.32 -126 57 C-114.33 62.27 -103.02 62.03 -91 58 C-87.39 56.25 -85.26 54.39 -83 51 C-81.98 42.52 -84.84 34.95 -87.43 26.99 C-88.09 24.69 -88.53 22.34 -89 20 C-87.51 18.84 -87.51 18.84 -80 13 C-77.28 17.07 -75.95 21.47 -74.32 26.07 C-73 29 -73 29 -70 31 C-62.29 33.34 -54.09 32.67 -47 29 C-45.03 25.3 -44.65 21.83 -44.38 17.69 C-44.3 16.62 -44.23 15.55 -44.15 14.45 C-44.12 14.05 -44.12 14.05 -44 12 C-41.03 11.34 -38.06 10.68 -35 10 C-35.02 10.94 -35.05 11.88 -35.07 12.85 C-35.09 14.1 -35.11 15.34 -35.12 16.62 C-35.15 17.85 -35.17 19.08 -35.2 20.35 C-35 23.99 -34.49 26.68 -33 30 C-24.77 33.85 -14.48 32.55 -6 30 C-5.67 29.84 -5.67 29.84 -4 29 C-3.45 22.97 -5.08 18.4 -7.22 12.77 C-8.04 9.87 -8.24 8.7 -7 6 C-5.37 4.3 -5.37 4.3 -3.44 2.75 C-2.8 2.23 -2.16 1.71 -1.5 1.17 C-1 0.79 -0.51 0.4 0 0 Z M-81 56 C-80 58 -80 58 -80 58 Z "/>
    <path transform="translate(804.00 188.00)" d="M0 0 C3.94 1.67 6.79 4.23 10 7 C8.47 10.44 6.4 13.12 4 16 C0.42 14.35 -2.75 12.22 -6 10 C-4.63 6 -2.74 3.2 0 0 Z "/>
    <path transform="translate(822.00 188.00)" d="M0 0 C4.71 2.49 6.7 3.6 10 8 C8.02 10.64 6.04 13.28 4 16 C-0.43 14.61 -2.87 12.39 -6 9 C-4.47 5.56 -2.4 2.88 0 0 Z "/>
    <path transform="translate(850.00 188.00)" d="M0 0 C5.01 1.43 6.94 3.98 10 8 C8.02 10.64 6.04 13.28 4 16 C0.13 15.03 -0.94 14.47 -3.75 11.94 C-4.36 11.39 -4.98 10.84 -5.61 10.28 C-6.07 9.86 -6.53 9.43 -7 9 C-6.02 7.69 -5.04 6.37 -4.06 5.06 C-3.52 4.33 -2.97 3.6 -2.41 2.85 C-1 1 -1 1 0 0 Z "/>
  </g>
  <g id="bottom-line" fill="#4a647c" fill-rule="evenodd">
    <path transform="translate(448.00 279.00)" d="M0 0 C1.46 8.18 2.22 16.25 2.55 24.54 C2.6 25.54 2.64 26.53 2.68 27.56 C3.07 37.65 3.19 47.73 3.19 57.83 C3.19 60.83 3.21 63.83 3.22 66.83 C3.31 97.38 3.31 97.38 0 104 C-2.07 104.41 -2.07 104.41 -4.56 104.62 C-4.98 104.66 -4.98 104.66 -7.07 104.85 C-7.7 104.9 -8.34 104.95 -9 105 C-9.02 104.3 -9.04 103.61 -9.06 102.89 C-9.26 96.2 -9.47 89.51 -9.68 82.83 C-9.79 79.39 -9.89 75.96 -9.99 72.52 C-10.46 56.75 -11.13 41.05 -12.5 25.34 C-12.58 24.45 -12.66 23.56 -12.74 22.65 C-12.92 20.83 -13.13 19.01 -13.37 17.2 C-13.48 16.31 -13.6 15.42 -13.72 14.5 C-13.83 13.71 -13.94 12.92 -14.06 12.1 C-13.99 9.52 -13.33 8.66 -11.54 6.84 C-10.45 5.98 -9.33 5.16 -8.19 4.38 C-7.63 3.94 -7.07 3.51 -6.49 3.07 C-2.42 0 -2.42 0 0 0 Z "/>
    <path transform="translate(215.00 289.00)" d="M0 0 C4.09 2.29 7.46 4.96 11 8 C10.41 11.39 9.23 13.21 6.94 15.75 C6.39 16.36 5.84 16.98 5.28 17.61 C4.86 18.07 4.43 18.53 4 19 C-0.59 17.51 -3.44 15.15 -7 12 C-6.39 8.56 -5.08 6.48 -2.94 3.75 C-2.39 3.04 -1.84 2.34 -1.28 1.61 C-0.86 1.08 -0.43 0.55 0 0 Z "/>
    <path transform="translate(772.00 289.00)" d="M0 0 C0.54 0.41 1.09 0.82 1.64 1.24 C2.36 1.78 3.08 2.32 3.81 2.88 C4.52 3.41 5.23 3.94 5.96 4.49 C7.6 5.71 9.3 6.86 11 8 C9.22 12.04 6.6 15.46 4 19 C0.34 18.41 -1.55 16.92 -4.25 14.44 C-4.96 13.8 -5.66 13.16 -6.39 12.5 C-6.92 12 -7.45 11.51 -8 11 C-6.64 8.01 -5.05 5.71 -2.88 3.25 C-2.34 2.64 -1.8 2.02 -1.24 1.39 C-1.04 1.16 -1.04 1.16 0 0 Z "/>
    <path transform="translate(1196.00 289.00)" d="M0 0 C1.29 0.96 2.58 1.92 3.88 2.88 C4.59 3.41 5.31 3.94 6.05 4.49 C8 6 8 6 10 8 C9.67 11.4 8.18 13.27 5.94 15.75 C5.39 16.36 4.84 16.98 4.28 17.61 C3.86 18.07 3.43 18.53 3 19 C-1.98 17.49 -5.24 14.44 -9 11 C-8.07 9.73 -7.13 8.46 -6.19 7.19 C-5.67 6.48 -5.14 5.77 -4.61 5.04 C-3.17 3.21 -1.68 1.6 0 0 Z "/>
    <path transform="translate(485.00 295.00)" d="M0 0 C3.44 0.61 5.52 1.92 8.25 4.06 C8.96 4.61 9.66 5.16 10.39 5.72 C10.66 5.93 10.66 5.93 12 7 C10.64 9.99 9.05 12.29 6.88 14.75 C6.61 15.06 6.61 15.06 5.24 16.61 C4.83 17.07 4.42 17.53 4 18 C0.61 17.41 -1.21 16.23 -3.75 13.94 C-4.36 13.39 -4.98 12.84 -5.61 12.28 C-6.07 11.86 -6.53 11.43 -7 11 C-6.41 7.61 -5.23 5.79 -2.94 3.25 C-2.39 2.64 -1.84 2.02 -1.28 1.39 C-0.86 0.93 -0.43 0.47 0 0 Z "/>
    <path transform="translate(531.00 296.00)" d="M0 0 C3.24 1.44 5.62 3.26 8.25 5.62 C8.96 6.26 9.66 6.89 10.39 7.54 C10.92 8.02 11.45 8.5 12 9 C9.29 14.31 6.77 17.42 2 21 C-1.3 18.03 -4.6 15.06 -8 12 C-6.39 7.97 -5.6 6.2 -2.88 3.19 C-2.34 2.58 -1.8 1.98 -1.24 1.36 C-0.83 0.91 -0.42 0.46 0 0 Z "/>
    <path transform="translate(206.00 307.00)" d="M0 0 C1.34 0.78 2.67 1.58 4 2.38 C4.37 2.6 4.37 2.6 6.25 3.71 C6.83 4.14 7.41 4.56 8 5 C8 5.66 8 6.32 8 7 C8.66 7 9.32 7 10 7 C10.33 7.99 10.66 8.98 11 10 C9.71 12.04 9.71 12.04 7.81 14.19 C7.2 14.9 6.59 15.62 5.96 16.36 C4 18 4 18 0 18 C-2.14 16.47 -2.14 16.47 -4.25 14.5 C-4.6 14.18 -4.6 14.18 -6.39 12.53 C-6.66 12.28 -6.66 12.28 -8 11 C-7 9 -6 7 -5 5 C-4.34 5 -3.68 5 -3 5 C-2.69 4.36 -2.38 3.72 -2.06 3.06 C-1 1 -1 1 0 0 Z "/>
    <path transform="translate(762.00 307.00)" d="M0 0 C2.99 1.36 5.29 2.95 7.75 5.12 C8.06 5.39 8.06 5.39 9.61 6.76 C10.07 7.17 10.53 7.58 11 8 C10.41 11.39 9.23 13.21 6.94 15.75 C6.39 16.36 5.84 16.98 5.28 17.61 C4.86 18.07 4.43 18.53 4 19 C-0.98 17.49 -4.24 14.44 -8 11 C-5.5 7.16 -2.92 3.54 0 0 Z "/>
    <path transform="translate(783.00 307.00)" d="M0 0 C4.98 1.51 8.24 4.56 12 8 C9.71 12.09 7.04 15.46 4 19 C2.18 17.88 0.37 16.75 -1.44 15.62 C-1.94 15.31 -1.94 15.31 -4.5 13.73 C-7 12 -7 12 -8 10 C-7.67 9.34 -7.34 8.68 -7 8 C-6.34 8 -5.68 8 -5 8 C-4.73 7.42 -4.46 6.85 -4.19 6.25 C-2.98 3.97 -1.59 2.03 0 0 Z "/>
    <path transform="translate(1186.00 307.00)" d="M0 0 C1.34 0.78 2.67 1.58 4 2.38 C4.37 2.6 4.37 2.6 6.25 3.71 C6.83 4.14 7.4 4.56 8 5 C8 5.66 8 6.32 8 7 C8.99 7.33 9.98 7.66 11 8 C10.41 11.39 9.23 13.21 6.94 15.75 C6.39 16.36 5.84 16.98 5.28 17.61 C4.86 18.07 4.43 18.53 4 19 C-0.67 17.44 -4.09 14.92 -8 12 C-7.67 10.68 -7.34 9.36 -7 8 C-6.34 8 -5.68 8 -5 8 C-4.73 7.42 -4.46 6.85 -4.19 6.25 C-2.98 3.97 -1.59 2.03 0 0 Z "/>
    <path transform="translate(1207.00 307.00)" d="M0 0 C1.46 0.79 2.92 1.58 4.38 2.38 C4.78 2.6 4.78 2.6 6.84 3.71 C9 5 9 5 11 7 C11 12.25 7.39 15.4 4 19 C-0.34 16.62 -4.21 14.22 -8 11 C-6.64 8.01 -5.05 5.71 -2.88 3.25 C-2.34 2.64 -1.8 2.02 -1.24 1.39 C-1.04 1.16 -1.04 1.16 0 0 Z "/>
    <path transform="translate(227.00 307.00)" d="M0 0 C4.37 2.19 7.72 4.32 11 8 C9.51 12.59 7.15 15.44 4 19 C-0.98 17.49 -4.24 14.44 -8 11 C-3.51 1.75 -3.51 1.75 0 0 Z "/>
    <path transform="translate(389.00 313.00)" d="M0 0 C6.27 2.11 10.28 6.53 15 11 C15.65 11.58 16.29 12.16 16.96 12.76 C25.07 20.32 31.36 30.21 32.28 41.39 C32.48 48.87 32.61 55.83 27.52 61.71 C18.9 69.79 8.02 70.33 -3.3 70.21 C-10.12 69.83 -14.85 68.67 -19.5 63.5 C-22.89 59.21 -23.12 55.7 -23.06 50.31 C-23.05 49.13 -23.04 47.95 -23.04 46.74 C-23.02 45.83 -23.01 44.93 -23 44 C-19.7 44 -16.4 44 -13 44 C-12.87 44.57 -12.87 44.57 -12.19 47.44 C-11.8 48.61 -11.4 49.79 -11 51 C-1.3 54.23 10.56 52 20 49 C20 39.58 14.61 32.72 8.23 26.15 C3.72 21.97 -0.84 18.33 -6 15 C-4.4 9.8 -2.26 4.93 0 0 Z "/>
    <path transform="translate(475.00 313.00)" d="M0 0 C4.98 1.51 8.24 4.56 12 8 C9.5 11.84 6.92 15.46 4 19 C0.96 17.59 -1.59 15.91 -4.25 13.88 C-4.96 13.34 -5.66 12.8 -6.39 12.24 C-6.92 11.83 -7.45 11.42 -8 11 C-6.64 8.01 -5.05 5.71 -2.88 3.25 C-2.34 2.64 -1.8 2.02 -1.24 1.39 C-1.04 1.16 -1.04 1.16 0 0 Z "/>
    <path transform="translate(496.00 313.00)" d="M0 0 C4.67 1.56 8.09 4.08 12 7 C10.49 11.98 7.44 15.24 4 19 C2.54 18.04 1.08 17.09 -0.38 16.12 C-1.19 15.59 -2 15.06 -2.84 14.51 C-5 13 -5 13 -7 11 C-6.67 7.6 -5.18 5.73 -2.94 3.25 C-2.39 2.64 -1.84 2.02 -1.28 1.39 C-0.86 0.93 -0.43 0.47 0 0 Z "/>
    <path transform="translate(999.00 312.00)" d="M0 0 C2.25 3.37 3.37 6.75 4.61 10.56 C5.12 12.1 5.64 13.63 6.15 15.17 C6.95 17.57 7.74 19.98 8.53 22.38 C16.41 46.38 16.41 46.38 22.41 50.76 C25.01 52.01 26.58 52.39 29.43 52.4 C29.84 52.4 29.84 52.4 31.9 52.41 C32.74 52.4 33.57 52.39 34.44 52.38 C35.27 52.39 36.1 52.4 36.96 52.41 C42.01 52.39 45.71 51.94 50 49 C53.86 43.11 53.67 34.8 54 28 C58.16 26.7 61.65 25.88 66 26 C65.98 26.58 65.96 27.16 65.94 27.76 C65.85 30.4 65.8 33.04 65.75 35.69 C65.72 36.6 65.68 37.51 65.65 38.45 C65.58 42.82 65.56 45.29 67.89 49.08 C71.55 52.41 74.88 52.3 79.62 52.56 C79.98 52.58 79.98 52.58 81.77 52.69 C83.51 52.8 85.26 52.9 87 53 C87.04 52.61 87.04 52.61 87.26 50.65 C88.98 37.4 92.56 23.77 102.75 14.5 C106.43 12.05 108.54 11.57 113 12 C118.71 14.97 121.75 18.81 124.09 24.77 C126.74 34.14 125.57 43.5 121 52 C116.58 59.55 110.99 64.48 103 68 C102.01 68 101.02 68 100 68 C100.96 69.94 101.91 71.88 102.88 73.81 C103.41 74.89 103.94 75.97 104.49 77.08 C106 80 106 80 108 83 C108.28 82.17 108.56 81.33 108.85 80.47 C112.91 69.08 117.99 60.64 129 55 C133.6 53.15 138.21 52.89 143.12 52.56 C148.52 52.17 152.67 51.44 156.55 47.38 C158.5 44.18 159.06 40.89 159.69 37.25 C159.75 36.9 159.75 36.9 160.08 35.14 C160.4 33.43 160.7 31.71 161 30 C164.63 30 168.26 30 172 30 C172.01 30.54 172.01 30.54 172.08 33.29 C172.13 34.73 172.19 36.18 172.25 37.62 C172.26 38.34 172.28 39.05 172.29 39.79 C172.53 44.87 173.56 48.02 177 52 C180.66 53.66 184.45 53.1 188.31 52.38 C191.67 50.66 192.36 49.38 194 46 C194.49 43.38 194.87 40.89 195.12 38.25 C195.89 31.11 195.89 31.11 197 30 C198.85 29.93 200.71 29.92 202.56 29.94 C203.57 29.95 204.59 29.96 205.63 29.96 C206.41 29.98 207.19 29.99 208 30 C207.98 31.11 207.95 32.22 207.93 33.36 C207.91 34.82 207.89 36.29 207.88 37.75 C207.87 38.11 207.87 38.11 207.82 39.96 C207.76 47.1 207.76 47.1 210 50 C213.11 52.16 215.84 52.27 219.56 52.25 C220.04 52.25 220.04 52.25 222.44 52.27 C225 52 225 52 228 50 C228.49 44.92 227.57 40.77 226.06 35.94 C224.73 31.62 223.65 27.47 223 23 C224.59 21.63 226.2 20.28 227.81 18.94 C228.26 18.56 228.26 18.56 230.52 16.65 C230.93 16.38 230.93 16.38 233 15 C233.99 15.33 234.98 15.66 236 16 C236.93 18.33 237.6 20.45 238.19 22.88 C238.36 23.58 238.53 24.29 238.71 25.01 C241.09 35.85 242.25 48.91 237.2 59.12 C235.43 61.9 233.56 63.93 231 66 C230.17 66.76 229.35 67.53 228.5 68.31 C222.68 71.12 215.94 71.21 209.74 69.3 C205.46 67.1 203.31 64.06 201 60 C200.48 60.72 199.97 61.44 199.44 62.19 C195.22 67.06 191.54 70.09 185 70.94 C178.96 71.24 174.73 70.23 169.75 66.69 C167.24 64.23 165.6 62.1 164 59 C163.46 59.91 162.93 60.81 162.38 61.75 C159.5 65.95 156.47 68.41 151.4 69.62 C147.13 70.35 142.85 70.9 138.54 71.42 C127.18 72.93 127.18 72.93 123 77 C119.94 81.52 118.37 85.46 119 91 C119.11 91.31 119.11 91.31 119.69 92.88 C120.14 95.93 119.01 97.23 117.31 99.75 C116.79 100.55 116.27 101.35 115.74 102.17 C115.45 102.47 115.45 102.47 114 104 C109.74 104 109.08 103.71 105.88 101.25 C105.19 100.74 104.51 100.23 103.8 99.7 C101.92 97.92 101 96.38 100 94 C99.34 94 98.68 94 98 94 C92.87 86.92 89.76 79.52 88 71 C87.24 71.02 86.48 71.05 85.69 71.07 C76.11 71.24 68.71 71.18 61.31 64.63 C59.82 62.78 59.4 61.33 59 59 C58.34 59 57.68 59 57 59 C56.9 59.28 56.9 59.28 56.38 60.69 C53.53 65.48 49.2 68.28 44 70 C34.03 71.51 24.06 72.21 15.56 66.12 C12.91 64.01 10.96 61.77 9 59 C8.65 59.72 8.3 60.44 7.94 61.19 C4.42 66.3 -0.35 69.47 -6.5 70.72 C-15.2 71.7 -24.18 72.34 -32 68 C-34.51 65.63 -36.45 63.1 -38 60 C-38.07 57.45 -38.09 54.93 -38.06 52.38 C-38.06 51.67 -38.05 50.96 -38.05 50.23 C-38.04 48.49 -38.02 46.74 -38 45 C-34.7 45 -31.4 45 -28 45 C-27.71 46.13 -27.42 47.27 -27.12 48.44 C-26.75 49.61 -26.38 50.79 -26 52 C-20.4 54.8 -10.23 53.64 -4.13 52.43 C-2 51.69 -2 51.69 1 50 C2.35 45.96 1.24 44.25 -0.24 40.29 C-0.48 39.63 -0.72 38.98 -0.97 38.31 C-1.74 36.22 -2.53 34.14 -3.31 32.06 C-3.83 30.67 -4.35 29.27 -4.87 27.87 C-8.65 17.7 -8.65 17.7 -11 13 C-11.47 10.52 -11.47 10.52 -11 8 C-8.59 5.76 -8.59 5.76 -5.5 3.69 C-4.48 2.99 -3.46 2.29 -2.41 1.57 C-1.61 1.05 -0.82 0.54 0 0 Z M108 25 C101.6 32.46 98.6 42.18 99 52 C111.58 48.14 111.58 48.14 115 43 C115.49 37.17 114.95 32.15 112 27 C109.81 25.5 109.81 25.5 108 25 Z "/>
    <path transform="translate(844.00 279.00)" d="M0 0 C2.83 11.31 3.14 22.59 3.21 34.21 C3.24 36.7 3.27 39.18 3.3 41.67 C3.34 45.54 3.38 49.41 3.4 53.28 C3.43 57.05 3.47 60.82 3.52 64.59 C3.53 65.74 3.53 66.9 3.53 68.09 C3.69 78.31 3.69 78.31 7 83 C9.96 84.98 10.68 85.26 14.01 85.41 C14.77 85.45 15.53 85.49 16.31 85.53 C17.09 85.56 17.88 85.59 18.69 85.62 C19.48 85.66 20.28 85.7 21.1 85.74 C23.07 85.84 25.03 85.92 27 86 C26.68 85.29 26.35 84.59 26.02 83.86 C23.64 77.18 24.16 69.24 27.01 62.76 C28.69 59.77 30.6 57.46 33 55 C33.66 55 34.32 55 35 55 C35 54.01 35 53.02 35 52 C33.68 51.67 32.36 51.34 31 51 C31.65 45.93 33.85 41.58 36 37 C39.48 37.58 42.33 38.47 45.48 40.04 C46.31 40.45 47.14 40.86 47.99 41.29 C48.43 41.51 48.43 41.51 50.62 42.62 C51.52 43.08 52.42 43.53 53.34 44 C82.83 59.11 82.83 59.11 87.81 73.12 C90.2 81.01 88.76 88.7 85.18 95.99 C83.09 99.56 80.78 103.11 77 105 C67.34 105.83 57.79 103.01 48.71 99.86 C44.51 98.53 40.97 99.32 36.85 100.74 C30.32 102.91 24.13 103.36 17.31 103.44 C16.42 103.46 15.53 103.48 14.61 103.5 C6.99 103.48 1.66 101.61 -3.81 96.25 C-9.99 87.07 -10.11 77.11 -10.25 66.35 C-10.28 64.5 -10.31 62.65 -10.35 60.8 C-10.39 57.95 -10.44 55.09 -10.48 52.24 C-10.64 40.97 -11.14 29.92 -12.58 18.75 C-12.95 15.42 -13.26 12.33 -13 9 C-10.66 6.45 -10.66 6.45 -7.62 4.12 C-6.63 3.34 -5.63 2.56 -4.6 1.76 C-2 0 -2 0 0 0 Z M37 64 C34.8 67.72 33.83 69.82 34.44 74.12 C36.52 77.95 38.36 79.57 42 82 C44.5 82.62 44.5 82.62 47 82 C51.05 79.22 53.95 76.9 55 72 C54.93 67.79 54.7 65.76 51.81 62.62 C45.78 59.14 42.28 59.31 37 64 Z M63 67 C62.99 67.63 62.97 68.26 62.96 68.91 C62.63 74.82 61.54 78.6 58.06 83.41 C57 85 57 85 57 87 C59.21 87.68 61.41 88.34 63.62 89 C64.85 89.37 66.08 89.74 67.35 90.12 C70.74 90.94 73.54 91.17 77 91 C78.74 88.44 79 86.88 79.06 83.75 C77.01 76.49 70.92 71.41 65 67 C64.34 67 63.68 67 63 67 Z "/>
    <path transform="translate(543.00 326.00)" d="M0 0 C0.65 2.06 1.29 4.12 1.94 6.19 C2.12 6.76 2.12 6.76 3.03 9.67 C4.73 15.5 5.21 20.76 5.25 26.81 C5.27 27.58 5.29 28.35 5.31 29.14 C5.37 37.17 3.19 43.51 -2.25 49.46 C-10.13 56.39 -20.92 57.29 -31 57 C-34.99 56.24 -38.36 54.82 -42 53 C-42.04 54.07 -42.08 55.14 -42.12 56.25 C-43.42 66.24 -49.62 75.4 -57 82 C-69.53 91.18 -69.53 91.18 -75.88 90.85 C-79.57 89.84 -82.54 88.31 -85.88 86.44 C-87.03 85.8 -88.18 85.16 -89.37 84.5 C-90.24 84 -91.1 83.51 -92 83 C-92 81.35 -92 79.7 -92 78 C-90.98 77.79 -89.97 77.58 -88.92 77.37 C-76.42 74.64 -65.31 70.22 -57 60 C-56.54 59.47 -56.09 58.94 -55.62 58.39 C-53.12 54.92 -52.76 52.34 -53.38 48.12 C-54.71 42.19 -56.88 36.48 -59.14 30.84 C-61.15 25.61 -61.15 25.61 -60.46 22.73 C-58.63 20.56 -56.66 18.94 -54.38 17.25 C-53.56 16.64 -52.74 16.02 -51.9 15.39 C-51.27 14.93 -50.65 14.47 -50 14 C-48 15 -48 15 -46.82 18.42 C-46.39 19.86 -45.97 21.31 -45.56 22.75 C-42.16 34.67 -42.16 34.67 -37.89 37.29 C-33.8 38.29 -29.89 38.33 -25.69 38.31 C-24.87 38.33 -24.05 38.34 -23.21 38.36 C-17.5 38.37 -13.14 37.57 -8 35 C-6.4 31.01 -7.66 27.64 -8.81 23.69 C-8.99 23.05 -9.17 22.41 -9.35 21.75 C-9.89 19.83 -10.45 17.92 -11 16 C-11.38 14.67 -11.76 13.35 -12.14 12.02 C-12.28 11.52 -12.28 11.52 -13 9 C-11.21 7.49 -9.42 6 -7.62 4.5 C-6.63 3.66 -5.63 2.83 -4.6 1.97 C-2 0 -2 0 0 0 Z "/>
    <path transform="translate(64.00 312.00)" d="M0 0 C2.58 2.58 3.09 4.86 4.21 8.34 C4.41 8.97 4.62 9.61 4.84 10.26 C5.5 12.3 6.16 14.34 6.81 16.38 C16.72 47.15 16.72 47.15 22.67 51.11 C25.86 52.33 28.84 52.44 32.25 52.62 C33.51 52.7 34.78 52.77 36.08 52.85 C37.04 52.9 38.01 52.95 39 53 C39.04 52.62 39.04 52.62 39.23 50.72 C40.97 36.63 45.18 22.27 56.5 12.94 C60.02 11.62 62.26 11.42 66 12 C72.02 15.33 75.12 20.54 77 27 C79.09 36.71 77.51 45.39 72.25 53.81 C67.06 60.97 60.76 64.94 53 69 C54.16 71.31 54.16 71.31 60 83 C60.33 83 60.66 83 61 83 C61.14 82.32 61.27 81.64 61.41 80.95 C63.56 71.66 67.44 64.22 75.31 58.56 C83.16 53.88 90.88 52.68 99.92 52.31 C103.27 51.97 105.92 51.38 109 50 C110.28 48.14 110.28 48.14 111 46 C111.13 45.65 111.13 45.65 111.82 43.89 C113.39 39.24 114.48 34.88 115 30 C118.63 30 122.26 30 126 30 C125.96 31.46 125.92 32.93 125.88 34.44 C125.89 46.31 125.89 46.31 129.34 50.7 C132.18 52.92 135.52 52.99 139 53 C142.63 52.31 144.35 51.86 146.6 48.9 C148.29 45.4 148.75 42.07 149.12 38.25 C149.89 31.11 149.89 31.11 151 30 C152.85 29.93 154.71 29.92 156.56 29.94 C157.57 29.95 158.59 29.96 159.63 29.96 C160.41 29.98 161.19 29.99 162 30 C161.97 31.1 161.93 32.19 161.89 33.32 C161.87 34.78 161.84 36.23 161.81 37.69 C161.79 38.41 161.76 39.13 161.74 39.87 C161.67 44.46 162.13 47.37 165 51 C167.44 52.22 169.21 52.24 171.94 52.31 C172.81 52.35 173.69 52.39 174.59 52.43 C177 52 177 52 178.75 50.23 C180.71 46.74 181.13 43.64 181.1 39.67 C181.09 38.87 181.09 38.07 181.09 37.25 C181.08 36.43 181.07 35.6 181.06 34.75 C181.06 34.33 181.06 34.33 181.05 32.2 C181.04 30.14 181.02 28.07 181 26 C182.41 25.32 183.83 24.66 185.25 24 C186.04 23.63 186.83 23.26 187.64 22.88 C190 22 190 22 194 22 C193.97 23.11 193.93 24.22 193.89 25.37 C193.51 42.73 193.51 42.73 197 49 C199.28 51.27 200.6 51.94 203.8 52.4 C204.82 52.39 205.83 52.38 206.88 52.38 C207.88 52.38 208.89 52.39 209.93 52.4 C214.69 51.78 217.86 50.26 221.09 46.69 C221.7 45.8 222.31 44.91 222.94 44 C223.28 43.51 223.28 43.51 225 41.05 C226.9 38.15 228.7 35.21 230.5 32.25 C234.09 26.51 238.42 21.19 245 19 C250.8 18.32 256.35 17.93 261.38 21.25 C269.09 28.03 272.52 39 273.31 48.94 C273.07 56.26 270.55 62.31 265.53 67.62 C261.91 70.88 258.18 71.46 253.37 71.31 C245.31 70.25 238.34 67.05 231.84 62.27 C230 61 230 61 227 60 C226.54 60.55 226.08 61.11 225.61 61.68 C225 62.4 224.38 63.13 223.75 63.88 C223.45 64.23 223.45 64.23 221.92 66.05 C218 70.03 213.48 70.92 208 71 C201.81 70.4 196.82 69.12 192 65 C189.81 62.01 189 60.72 189 57 C188.34 57 187.68 57 187 57 C186.94 57.72 186.88 58.44 186.81 59.19 C185.5 63.72 182.33 65.93 178.75 68.81 C174.1 70.82 169.66 70.8 164.82 69.34 C159.51 67.02 157.01 63.89 154 59 C153.46 59.89 152.93 60.77 152.38 61.69 C149.51 65.88 146.7 69.25 141.71 70.64 C135.73 71.5 130.28 71.08 125 68 C122.37 65.54 120.14 62.9 118 60 C117.53 60.72 117.05 61.44 116.56 62.19 C111.15 68.13 105 70.46 97.09 71 C96.64 71.02 96.64 71.02 94.38 71.12 C80.41 71.86 80.41 71.86 74.69 77.12 C71.97 81.76 70.4 86.64 71.75 91.94 C72.17 97.09 68.83 100.86 66 105 C56.34 101.38 50.15 94.87 45 86 C40 75 40 75 40 70 C39.73 70.08 39.73 70.08 38.39 70.51 C31.26 71.97 22.97 70.88 16.65 67.25 C13.92 65.18 12.06 62.73 10 60 C9.67 59.83 9.67 59.83 8 59 C7.77 59.76 7.54 60.52 7.3 61.3 C5.72 64.58 4.27 65.47 1.12 67.25 C0.26 67.75 -0.6 68.25 -1.49 68.77 C-8.99 72.46 -19.05 72.02 -27.13 70.35 C-31.38 68.87 -34.19 67.4 -36.56 63.5 C-39.1 57.33 -40.18 51.55 -38 45 C-35.03 45 -32.06 45 -29 45 C-28.71 46.13 -28.42 47.27 -28.12 48.44 C-27.75 49.61 -27.38 50.79 -27 52 C-23.71 53.64 -20.11 53.23 -16.5 53.25 C-15.73 53.27 -14.97 53.29 -14.18 53.31 C-8.03 53.35 -2.79 52.02 3 50 C-0.73 39.15 -4.51 28.35 -8.87 17.74 C-10.28 14.22 -11 11.85 -11 8 C-8.59 5.86 -8.59 5.86 -5.5 3.75 C-4.48 3.04 -3.46 2.34 -2.41 1.61 C-1.61 1.08 -0.82 0.55 0 0 Z M60 25 C53.3 31.7 51.61 41.89 51 51 C54.75 52.25 55.55 51.59 59 49.88 C65.62 46.34 65.62 46.34 67 42 C67.77 36 67.05 31.24 64 26 C61.81 25.06 61.81 25.06 60 25 Z M241 38 C240.26 38.85 239.51 39.69 238.75 40.56 C237.08 42.89 236.58 44.27 236 47 C243.46 51.9 250.02 55.21 259 56 C261.5 52.24 261.62 49.34 261 45 C259.7 40.84 258.07 37.22 255.19 33.94 C248.81 31.2 245.19 32.9 241 38 Z "/>
    <path transform="translate(811.00 327.00)" d="M0 0 C0.65 2.19 1.3 4.37 1.94 6.56 C2.3 7.78 2.66 9 3.03 10.25 C6.04 21.85 6.82 34.55 0.71 45.26 C-2.38 49.73 -5.7 53.38 -11 55 C-18.18 56.03 -24 55.15 -30 51 C-32.5 48.88 -32.5 48.88 -34 47 C-34 46.34 -34 45.68 -34 45 C-34.66 45 -35.32 45 -36 45 C-36.11 45.37 -36.11 45.37 -36.69 47.25 C-38.7 51.46 -41.52 53.26 -45.62 55.31 C-52 56.61 -58.46 56.21 -64.19 52.94 C-64.65 52.62 -64.65 52.62 -67 51 C-67 50.34 -67 49.68 -67 49 C-67.66 49 -68.32 49 -69 49 C-70.62 47 -70.62 47 -72 45 C-72.38 45.47 -72.75 45.94 -73.14 46.43 C-77.3 51.49 -80.57 54.78 -87.25 55.81 C-95.52 56.44 -101.16 54.46 -107.57 49.24 C-107.8 49.04 -107.8 49.04 -109 48 C-109.33 48.55 -109.65 49.11 -109.99 49.68 C-110.43 50.4 -110.86 51.13 -111.31 51.88 C-111.53 52.23 -111.53 52.23 -112.61 54.05 C-114 56 -114 56 -117 58 C-126.98 59.11 -135.33 55.38 -143.06 49.19 C-143.41 48.89 -143.41 48.89 -145.16 47.36 C-147 46 -147 46 -150 46 C-151.15 47.43 -152.29 48.88 -153.33 50.39 C-158.3 55.17 -163.89 55.33 -170.44 55.26 C-171.43 55.24 -172.42 55.21 -173.44 55.19 C-174.46 55.17 -175.47 55.16 -176.52 55.15 C-179.01 55.11 -181.51 55.06 -184 55 C-183.39 55.19 -182.77 55.37 -182.14 55.57 C-181.33 55.82 -180.52 56.08 -179.69 56.34 C-178.89 56.59 -178.09 56.84 -177.27 57.09 C-173.49 58.6 -171.98 60.49 -170 64 C-168.64 70.53 -170.18 75.96 -173.4 81.68 C-180.81 92.43 -193.11 96.13 -205.43 98.5 C-218.69 100.37 -232.4 99.28 -243.84 91.8 C-249.49 87.08 -253.45 80.27 -254.22 72.89 C-255.02 56.88 -252.3 43.39 -245 29 C-240.7 29.49 -238.34 30.29 -235 33 C-235.34 33.82 -235.68 34.64 -236.02 35.49 C-240.01 45.47 -244.73 57.44 -241.28 68.27 C-238.9 73.47 -236.15 76.77 -230.69 78.9 C-215.24 83.77 -197.45 80.84 -183 74 C-183 72.02 -183 70.04 -183 68 C-183.29 67.92 -183.29 67.92 -184.77 67.52 C-191.75 65.53 -198.35 62.89 -205 60 C-200.61 44.69 -200.61 44.69 -197 39 C-193.18 37.81 -189.35 37.86 -185.38 37.82 C-184.75 37.81 -184.75 37.81 -181.54 37.75 C-178.89 37.71 -176.24 37.68 -173.59 37.66 C-172.33 37.63 -171.06 37.6 -169.75 37.57 C-168.6 37.56 -167.45 37.55 -166.26 37.53 C-161.59 36.77 -158.37 34.64 -155.35 31.03 C-154.92 30.34 -154.5 29.65 -154.06 28.94 C-153.57 28.16 -153.07 27.37 -152.56 26.57 C-151.48 24.79 -150.41 23 -149.35 21.21 C-145.26 14.47 -140.8 7.6 -133 5 C-127.22 4.43 -123.06 4.88 -118 8 C-118 8.66 -118 9.32 -118 10 C-117.01 10.33 -116.02 10.66 -115 11 C-113.59 13.15 -112.34 15.25 -111.12 17.5 C-110.95 17.82 -110.95 17.82 -110.06 19.42 C-108.51 22.2 -107 25.01 -105.51 27.82 C-105.09 28.6 -104.68 29.38 -104.25 30.19 C-103.9 30.86 -103.56 31.54 -103.2 32.23 C-101.67 34.49 -100.38 35.65 -98 37 C-94.91 37.36 -94.91 37.36 -91.5 37.31 C-90.94 37.31 -90.94 37.31 -88.09 37.3 C-85.08 37.01 -83.44 36.75 -81 35 C-76.76 28.91 -75.14 22.23 -74 15 C-70.37 15 -66.74 15 -63 15 C-63.03 15.93 -63.07 16.86 -63.11 17.82 C-63.4 31.46 -63.4 31.46 -60 36 C-55.85 37.93 -52.18 38.18 -47.69 37.5 C-44.15 35.53 -42.98 33.53 -41 30 C-40.42 27.29 -40 24.85 -39.75 22.12 C-39.67 21.44 -39.6 20.75 -39.52 20.04 C-39.33 18.36 -39.16 16.68 -39 15 C-35.04 15 -31.08 15 -27 15 C-27.05 16.18 -27.09 17.36 -27.14 18.58 C-27.18 20.14 -27.21 21.69 -27.25 23.25 C-27.27 23.64 -27.27 23.64 -27.35 25.61 C-27.45 31.41 -27.45 31.41 -25.11 34.48 C-21.87 36.81 -20.07 37.14 -16.12 37.12 C-15.26 37.13 -14.4 37.13 -13.51 37.13 C-11.19 37.01 -9.22 36.65 -7 36 C-6.74 30 -7.5 25.35 -9.44 19.69 C-9.67 18.99 -9.9 18.28 -10.13 17.56 C-10.75 15.7 -11.37 13.85 -12 12 C-12.33 11.01 -12.66 10.02 -13 9 C-2.63 0 -2.63 0 0 0 Z M-138 24 C-139.98 27.3 -141 29.15 -141 33 C-126.4 41.82 -126.4 41.82 -119 43 C-116.44 39.15 -116.49 37.59 -117 33 C-118.96 27.93 -121.37 22.09 -126 19 C-131.37 17.95 -134.53 20.06 -138 24 Z "/>
    <path transform="translate(1036.00 393.00)" d="M0 0 C5.31 2.71 8.42 5.23 12 10 C9.36 13.3 6.72 16.6 4 20 C-0.34 17.62 -4.21 15.22 -8 12 C-6.59 8.96 -4.91 6.41 -2.88 3.75 C-2.61 3.4 -2.61 3.4 -1.24 1.61 C-0.83 1.08 -0.42 0.55 0 0 Z "/>
    <path transform="translate(1056.00 394.00)" d="M0 0 C5.44 0.34 8.94 3.7 13 7 C11.49 11.98 8.44 15.24 5 19 C3.54 18.04 2.08 17.09 0.62 16.12 C-0.19 15.59 -1 15.06 -1.84 14.51 C-4 13 -4 13 -6 11 C-5.64 7.83 -4.33 5.77 -2.44 3.25 C-1.98 2.64 -1.53 2.02 -1.06 1.39 C-0.71 0.93 -0.36 0.47 0 0 Z "/>
  </g>
  <g id="symbol" fill="#486680" fill-rule="evenodd">
    <path d="M1401.05 297.08 C1386.89 190.11 1446.81 87.29 1545.58 49.05 C1644.35 10.80 1755.88 47.24 1814.63 136.94 L1783.21 136.01 C1726.74 64.30 1630.81 39.47 1547.88 75.10 C1464.96 110.74 1415.00 198.26 1425.34 289.79Z"/>
    <path transform="translate(1531.21 149.63)" d="M0 0 C1.26 -0.01 2.51 -0.01 3.81 -0.02 C5.2 -0.01 6.59 -0 7.99 0.01 C9.47 0.01 10.95 0 12.43 0 C16.5 -0.01 20.57 0.01 24.64 0.02 C29.03 0.03 33.42 0.03 37.81 0.03 C45.41 0.03 53.02 0.04 60.62 0.05 C71.62 0.08 82.61 0.08 93.61 0.09 C111.45 0.09 129.29 0.11 147.13 0.14 C164.45 0.17 181.78 0.19 199.11 0.2 C199.65 0.2 199.65 0.2 202.35 0.21 C207.71 0.21 213.07 0.21 218.42 0.22 C262.88 0.25 307.34 0.3 351.79 0.37 C348.61 2.49 345.39 3.81 341.86 5.18 C336.25 7.38 330.69 9.65 325.13 11.97 C294.03 24.96 262.78 37.6 231.48 50.09 C223.4 53.32 215.34 56.58 207.29 59.87 C194.09 65.26 180.84 70.57 167.59 75.85 C163.82 77.36 160.05 78.87 156.28 80.37 C155.97 80.5 155.97 80.5 154.41 81.12 C152.54 81.87 150.67 82.62 148.79 83.37 C141.89 86.13 134.99 88.89 128.09 91.64 C124.93 92.91 121.77 94.17 118.61 95.43 C117.99 95.68 117.37 95.93 116.73 96.18 C107.61 99.82 98.51 103.52 89.42 107.24 C81.35 110.55 73.27 113.72 65.09 116.73 C58.18 119.32 51.38 122.19 44.55 124.99 C36.32 128.36 28.07 131.64 19.79 134.87 C10.91 138.34 2.06 141.87 -6.77 145.49 C-18.5 150.3 -30.29 154.97 -42.08 159.62 C-55.96 165.09 -69.82 170.62 -83.64 176.24 C-97.57 181.91 -111.54 187.47 -125.54 192.94 C-131.88 195.41 -138.2 197.9 -144.53 200.39 C-146.63 201.22 -148.74 202.04 -150.84 202.87 C-152.16 203.39 -153.48 203.91 -154.8 204.42 C-156.57 205.12 -158.34 205.81 -160.12 206.5 C-162.21 207.37 -162.21 207.37 -164.69 208.65 C-174.02 213.18 -182.53 213.02 -192.66 212.86 C-194.41 212.85 -196.17 212.84 -197.92 212.84 C-202.5 212.82 -207.07 212.77 -211.65 212.71 C-216.34 212.66 -221.02 212.64 -225.71 212.61 C-234.88 212.56 -244.04 212.47 -253.21 212.37 C-251.15 210.31 -250.04 209.79 -247.37 208.81 C-246.97 208.66 -246.97 208.66 -244.94 207.91 C-244.06 207.59 -243.18 207.26 -242.27 206.93 C-234.03 203.85 -225.85 200.64 -217.71 197.31 C-216.59 196.85 -215.48 196.4 -214.33 195.93 C-211.93 194.94 -209.53 193.96 -207.13 192.97 C-199.77 189.96 -192.39 186.98 -185.02 183.99 C-181.86 182.72 -178.71 181.44 -175.55 180.16 C-174.77 179.84 -173.99 179.53 -173.19 179.2 C-167.91 177.06 -162.64 174.92 -157.36 172.77 C-154.58 171.63 -151.8 170.5 -149.02 169.37 C-148.35 169.1 -147.69 168.83 -147 168.55 C-138.68 165.16 -130.35 161.8 -121.94 158.63 C-118.27 157.24 -114.7 155.69 -111.13 154.04 C-105.05 151.25 -98.86 148.78 -92.64 146.32 C-89.31 145 -85.98 143.68 -82.65 142.35 C-81.99 142.09 -81.34 141.83 -80.67 141.56 C-74.91 139.26 -69.19 136.88 -63.5 134.45 C-58.68 132.4 -53.84 130.4 -48.99 128.42 C-47.04 127.63 -45.09 126.83 -43.14 126.03 C-41.27 125.27 -39.39 124.51 -37.52 123.76 C-19.09 116.22 -5.44 107.12 3.72 89.06 C9.99 73.43 7.99 54.7 1.59 39.51 C-6.19 21.6 -6.19 21.6 -10.55 14.42 C-12.98 9.95 -12.57 8.19 -11.21 3.37 C-7.49 0.45 -4.65 -0 0 0 Z "/>
    <path transform="translate(1911.04 166.61)" d="M0 0 C1.73 0.01 3.47 0.01 5.2 0.02 C9.74 0.03 14.27 0.07 18.81 0.12 C23.44 0.16 28.08 0.18 32.72 0.2 C41.8 0.24 50.88 0.31 59.96 0.39 C58.31 3.69 54.64 4.26 51.34 5.52 C49.5 6.23 47.66 6.95 45.82 7.68 C45.29 7.89 45.29 7.89 42.59 8.95 C36.05 11.55 29.54 14.24 23.03 16.92 C9.4 22.53 -4.25 28.11 -17.91 33.64 C-33.3 39.86 -48.66 46.13 -64.02 52.41 C-79.7 58.82 -95.4 65.18 -111.1 71.52 C-125.72 77.41 -140.32 83.32 -154.83 89.47 C-156.92 90.34 -159.03 91.18 -161.14 92 C-177.1 98.36 -188.79 108.37 -195.81 124.08 C-203.02 143.51 -198.96 163.19 -190.83 181.6 C-188.86 185.9 -186.59 189.92 -184.1 193.95 C-181.39 198.46 -179.84 201.18 -181.04 206.39 C-183.26 209.3 -184.56 210.23 -188.04 211.39 C-190 211.48 -191.97 211.51 -193.94 211.51 C-194.56 211.51 -194.56 211.51 -197.69 211.52 C-199.07 211.52 -200.46 211.51 -201.84 211.51 C-203.3 211.51 -204.76 211.51 -206.23 211.51 C-210.26 211.52 -214.29 211.51 -218.32 211.51 C-222.66 211.5 -227 211.5 -231.34 211.5 C-238.87 211.51 -246.39 211.5 -253.92 211.5 C-264.8 211.49 -275.68 211.49 -286.56 211.48 C-304.21 211.48 -321.86 211.48 -339.51 211.47 C-356.66 211.46 -373.81 211.45 -390.96 211.45 C-392.02 211.45 -393.07 211.45 -394.16 211.44 C-399.46 211.44 -404.76 211.44 -410.06 211.44 C-454.05 211.43 -498.05 211.41 -542.04 211.39 C-539.43 208.78 -536.48 207.87 -533.09 206.59 C-532.74 206.45 -532.74 206.45 -530.95 205.76 C-529.41 205.17 -527.87 204.59 -526.34 204 C-522.2 202.43 -518.08 200.83 -513.95 199.24 C-513.11 198.91 -512.27 198.59 -511.4 198.25 C-503.66 195.26 -495.97 192.16 -488.29 189.02 C-485.68 187.95 -483.06 186.88 -480.45 185.81 C-479.78 185.54 -479.12 185.27 -478.44 184.99 C-469.55 181.37 -460.64 177.82 -451.73 174.27 C-440.5 169.79 -429.29 165.29 -418.1 160.7 C-400.83 153.64 -383.45 146.86 -366.08 140.06 C-364.17 139.31 -362.26 138.56 -360.35 137.81 C-358.02 136.9 -355.7 135.99 -353.37 135.08 C-347.29 132.7 -341.26 130.24 -335.24 127.72 C-328.95 125.11 -322.61 122.6 -316.29 120.08 C-314.76 119.47 -313.23 118.86 -311.7 118.24 C-308.46 116.95 -305.23 115.66 -302 114.37 C-294.61 111.42 -287.23 108.47 -279.85 105.51 C-277.34 104.51 -274.83 103.51 -272.32 102.5 C-264.65 99.44 -257 96.37 -249.34 93.3 C-245.09 91.6 -240.85 89.9 -236.6 88.2 C-235.78 87.87 -234.95 87.54 -234.1 87.2 C-221.01 81.96 -207.91 76.77 -194.79 71.64 C-188.18 69.05 -181.61 66.39 -175.07 63.64 C-168.24 60.82 -161.34 58.18 -154.46 55.5 C-147.97 52.96 -141.5 50.36 -135.07 47.66 C-129.43 45.3 -123.77 43 -118.1 40.7 C-117.44 40.43 -116.77 40.16 -116.09 39.89 C-102.18 34.23 -88.24 28.66 -74.3 23.1 C-59.82 17.31 -45.36 11.49 -30.94 5.57 C-29.98 5.18 -29.02 4.79 -28.04 4.39 C-27.41 4.06 -26.77 3.72 -26.12 3.38 C-17.72 -0.67 -9.09 -0.12 0 0 Z "/>
    <path d="M1435.62 392.36 C1493.75 483.84 1606.39 521.58 1706.24 483.02 C1806.08 444.46 1866.16 340.02 1850.56 232.11 L1825.34 232.55 C1840.40 326.73 1790.66 419.25 1704.93 456.54 C1619.20 493.84 1519.70 466.23 1464.04 389.71Z"/>
  </g>
  <g id="latin-initials" fill="#4c6077" fill-rule="evenodd">
    <path transform="translate(1716.00 397.00)" d="M0 0 C0.33 -0.66 0.66 -1.32 1 -2 C1.66 -2 2.32 -2 3 -2 C3 2.95 3 7.9 3 13 C2.34 13 1.68 13 1 13 C0.88 12.73 0.88 12.73 0.3 11.36 C-1.21 8.04 -2.48 5.48 -5.19 3 C-10.6 1.08 -15.16 1.15 -20.38 3.56 C-24.63 7.51 -25.76 10.59 -26.32 16.21 C-26.56 23.57 -26.41 30.81 -22 37 C-18.71 39.61 -15.63 40.07 -11.5 39.89 C-5.51 38.98 -1.64 36.83 3 33 C2.18 37.24 0.58 38.56 -3 41 C-9.48 44.15 -17.63 44.26 -24.52 42.28 C-30.95 39.25 -35.39 34.64 -38 28 C-39.27 22.04 -39.5 16.67 -37 11 C-33.19 5.5 -28.8 0.19 -22.16 -1.68 C-14.47 -2.83 -7.47 -1.96 0 0 Z "/>
    <path transform="translate(1528.00 396.00)" d="M0 0 C7.59 0 15.18 0 23 0 C19 2 19 2 17 2 C16.98 7.07 16.96 12.14 16.95 17.22 C16.94 18.94 16.93 20.67 16.92 22.39 C16.91 24.87 16.91 27.35 16.9 29.83 C16.9 30.6 16.89 31.38 16.89 32.17 C16.89 35.38 16.98 37.93 18 41 C20.06 41.69 20.06 41.69 22 42 C22 42.66 22 43.32 22 44 C14.74 44 7.48 44 0 44 C0 43.34 0 42.68 0 42 C1.65 42 3.3 42 5 42 C5 29.13 5 16.26 5 3 C4.17 2.67 4.17 2.67 0 1 C0 0.67 0 0.34 0 0 Z "/>
    <path transform="translate(1614.00 419.00)" d="M0 0 C3.1 3.64 4.76 7.7 6.62 12.05 C7.31 13.66 8.01 15.26 8.71 16.86 C9.79 19.36 10.87 21.87 11.95 24.39 C13 26.82 14.06 29.25 15.12 31.68 C15.43 32.42 15.75 33.17 16.07 33.93 C16.23 34.29 16.23 34.29 17.01 36.08 C17.28 36.69 17.54 37.31 17.81 37.94 C19.5 40.87 21.83 43.4 24 46 C17.07 46 10.14 46 3 46 C6 44 6 44 8 44 C7.01 40.37 6.02 36.74 5 33 C-0.61 33 -6.22 33 -12 33 C-12.66 35.97 -13.32 38.94 -14 42 C-13.17 42.66 -13.17 42.66 -9 46 C-13.62 46 -18.24 46 -23 46 C-22.15 44.82 -21.29 43.63 -20.41 42.41 C-16.24 36.15 -13.36 29.32 -10.38 22.44 C-9.26 19.89 -8.14 17.35 -7.02 14.81 C-6.5 13.63 -5.99 12.45 -5.45 11.23 C-3.74 7.43 -1.92 3.71 0 0 Z M-4 15 C-5.2 17.29 -6.38 19.58 -7.56 21.88 C-7.9 22.53 -8.25 23.18 -8.6 23.85 C-9.46 25.54 -10.24 27.27 -11 29 C-10.67 29.66 -10.34 30.32 -10 31 C-5.71 31 -1.42 31 3 31 C2.17 26.83 1.21 23.96 -0.56 20.19 C-1.02 19.21 -1.47 18.24 -1.94 17.23 C-2.29 16.49 -2.64 15.76 -3 15 C-3.33 15 -3.66 15 -4 15 Z "/>
  </g>
</svg>
